<?xml version="1.0" standalone="no"?><!DOCTYPE svg PUBLIC "-//W3C//DTD SVG 1.1//EN" "http://www.w3.org/Graphics/SVG/1.1/DTD/svg11.dtd"><svg t="1649752537702" class="icon" viewBox="0 0 1024 1024" version="1.1" xmlns="http://www.w3.org/2000/svg" p-id="7144" xmlns:xlink="http://www.w3.org/1999/xlink" width="256" height="256"><defs><style type="text/css">@font-face { font-family: feedback-iconfont; src: url("//at.alicdn.com/t/font_1031158_u69w8yhxdu.woff2?t=1630033759944") format("woff2"), url("//at.alicdn.com/t/font_1031158_u69w8yhxdu.woff?t=1630033759944") format("woff"), url("//at.alicdn.com/t/font_1031158_u69w8yhxdu.ttf?t=1630033759944") format("truetype"); }
</style></defs><path d="M100.48 810.56l58.048-159.36h265.984l58.048 159.36h101.376L345.6 192H238.272L0 810.56h100.48z m295.424-237.376H187.136l103.04-279.808h3.52l102.208 279.808z m374.272 249.472c39.872 0 74.496-7.744 103.936-21.632a186.56 186.56 0 0 0 64.96-53.76v63.296H1024V524.672c0-54.592-13.888-96.192-40.704-124.8-31.232-32.896-79.744-49.28-145.536-49.28-55.488 0-100.48 9.472-133.44 30.272-38.144 22.528-62.4 58.88-71.872 107.392l90.88 7.808c5.248-25.088 18.24-43.328 39.04-55.424 17.28-10.368 40.704-15.616 69.312-15.616 67.584 0 101.376 31.232 101.376 93.568v18.176l-100.48 2.624c-65.92 1.728-117.824 14.72-154.24 40.704-39.872 26.88-59.776 65.92-59.776 116.096 0 37.248 13.888 67.584 42.432 90.944 25.984 23.424 62.4 35.52 109.184 35.52z m20.8-70.144c-23.424 0-42.496-6.08-56.32-17.28a50.624 50.624 0 0 1-21.696-42.496c0-55.424 41.6-84.928 125.632-86.656l94.464-2.56v25.984c0 34.624-14.72 64.128-42.496 87.488a149.248 149.248 0 0 1-99.584 35.52z" p-id="7145"></path></svg>