<?xml version="1.0" standalone="no"?><!DOCTYPE svg PUBLIC "-//W3C//DTD SVG 1.1//EN" "http://www.w3.org/Graphics/SVG/1.1/DTD/svg11.dtd"><svg t="1649752591479" class="icon" viewBox="0 0 1024 1024" version="1.1" xmlns="http://www.w3.org/2000/svg" p-id="8732" xmlns:xlink="http://www.w3.org/1999/xlink" width="256" height="256"><defs><style type="text/css">@font-face { font-family: feedback-iconfont; src: url("//at.alicdn.com/t/font_1031158_u69w8yhxdu.woff2?t=1630033759944") format("woff2"), url("//at.alicdn.com/t/font_1031158_u69w8yhxdu.woff?t=1630033759944") format("woff"), url("//at.alicdn.com/t/font_1031158_u69w8yhxdu.ttf?t=1630033759944") format("truetype"); }
</style></defs><path d="M714.752 42.666667a64 64 0 0 1 64 64v115.072l92.501333-61.653334a64 64 0 1 1 70.997334 106.496L830.122667 341.333333l112.128 74.752a64 64 0 1 1-70.997334 106.496l-92.501333-61.653333V576a64 64 0 0 1-128 0v-115.072l-92.501333 61.653333a64 64 0 0 1-70.997334-106.496L599.381333 341.333333 487.253333 266.581333a64 64 0 0 1 70.997334-106.496l92.501333 61.653334V106.666667a64 64 0 0 1 64-64z" p-id="8733"></path><path d="M277.333333 746.666667m-192 0a192 192 0 1 0 384 0 192 192 0 1 0-384 0Z" p-id="8734"></path></svg>