<?xml version="1.0" standalone="no"?><!DOCTYPE svg PUBLIC "-//W3C//DTD SVG 1.1//EN" "http://www.w3.org/Graphics/SVG/1.1/DTD/svg11.dtd"><svg t="1611074505839" class="icon" viewBox="0 0 1097 1024" version="1.1" xmlns="http://www.w3.org/2000/svg" p-id="18482" xmlns:xlink="http://www.w3.org/1999/xlink" width="274.25" height="256"><defs><style type="text/css"></style></defs><path d="M1024 566.857143V91.428571q0-7.428571-5.428571-12.857142T1005.714286 73.142857H91.428571q-7.428571 0-12.857142 5.428572T73.142857 91.428571v475.428572q0 7.428571 5.428572 12.857143t12.857142 5.428571h914.285715q7.428571 0 12.857143-5.428571t5.428571-12.857143z m73.142857-475.428572v621.714286q0 37.714286-26.857143 64.571429t-64.571428 26.857143h-310.857143q0 21.142857 9.142857 44.285714t18.285714 40.571428 9.142857 24.857143q0 14.857143-10.857142 25.714286t-25.714286 10.857143H402.285714q-14.857143 0-25.714285-10.857143t-10.857143-25.714286q0-8 9.142857-25.142857t18.285714-40 9.142857-44.571428H91.428571q-37.714286 0-64.571428-26.857143T0 713.142857V91.428571Q0 53.714286 26.857143 26.857143T91.428571 0h914.285715q37.714286 0 64.571428 26.857143t26.857143 64.571428z" p-id="18483"></path></svg>