<?xml version="1.0" standalone="no"?><!DOCTYPE svg PUBLIC "-//W3C//DTD SVG 1.1//EN" "http://www.w3.org/Graphics/SVG/1.1/DTD/svg11.dtd"><svg t="1611074482455" class="icon" viewBox="0 0 1024 1024" version="1.1" xmlns="http://www.w3.org/2000/svg" p-id="9695" xmlns:xlink="http://www.w3.org/1999/xlink" width="256" height="256"><defs><style type="text/css"></style></defs><path d="M475.428571 292.571429q0-45.714286-32-77.714286t-77.714285-32-77.714286 32-32 77.714286q0 24 10.857143 47.428571-23.428571-10.857143-47.428572-10.857143-45.714286 0-77.714285 32t-32 77.714286 32 77.714286 77.714285 32 77.714286-32 32-77.714286q0-24-10.857143-47.428572 23.428571 10.857143 47.428572 10.857143 45.714286 0 77.714285-32t32-77.714285z m486.285715 402.285714q0 9.714286-28 37.714286t-37.714286 28q-5.142857 0-16.285714-9.142858t-20.857143-18.857142-22-22.857143-14-14.857143l-54.857143 54.857143 125.714286 125.714285q16 16 16 38.857143 0 24-22.285715 46.285715t-46.285714 22.285714q-22.857143 0-38.857143-16l-383.428571-383.428572q-100.571429 74.857143-208.571429 74.857143-93.142857 0-151.714285-58.571428T0 448q0-91.428571 54.285714-178.857143t141.714286-141.714286 178.857143-54.285714q93.142857 0 151.714286 58.571429T585.142857 283.428571q0 108-74.857143 208.571429l202.857143 202.857143 54.857143-54.857143q-1.714286-1.714286-14.857143-14t-22.857143-22-18.857143-20.857143-9.142857-16.285714q0-9.714286 28-37.714286t37.714286-28q7.428571 0 13.142857 5.714286 3.428571 3.428571 26.285714 25.428571t46.857143 45.428572 49.428572 49.142857 41.714285 44.571428 16.285715 23.428572z" p-id="9696"></path></svg>